<svg width="175" height="141" viewBox="0 0 175 141" fill="none" xmlns="http://www.w3.org/2000/svg">
<path d="M54.9666 109.454C85.1474 109.366 109.542 84.828 109.454 54.6472C109.366 24.4664 84.828 0.0714714 54.6472 0.159659C24.4664 0.247846 0.0714899 24.7857 0.159677 54.9665C0.247865 85.1473 24.7857 109.542 54.9666 109.454Z" fill="url(#paint0_radial)"/>
<path d="M87.9534 73.4172L87.2454 72.7814C68.4902 56.0925 40.1118 56.4538 21.8046 73.6051" stroke="#5863E3" stroke-width="7" stroke-miterlimit="10" stroke-linecap="round"/>
<path d="M37.5302 43.3484C41.5043 43.3368 44.7109 38.178 44.6924 31.8258C44.6738 25.4736 41.4371 20.3336 37.463 20.3452C33.4889 20.3568 30.2823 25.5157 30.3009 31.8678C30.3194 38.22 33.5561 43.36 37.5302 43.3484Z" fill="#5863E3"/>
<path d="M72.0352 43.2473C76.0093 43.2357 79.2159 38.0768 79.1974 31.7246C79.1788 25.3725 75.9421 20.2324 71.968 20.244C67.9939 20.2556 64.7873 25.4145 64.8059 31.7667C64.8244 38.1189 68.0611 43.2589 72.0352 43.2473Z" fill="#5863E3"/>
<path d="M119.551 141C149.731 141 174.198 116.534 174.198 86.3528C174.198 56.172 149.731 31.7056 119.551 31.7056C89.3697 31.7056 64.9033 56.172 64.9033 86.3528C64.9033 116.534 89.3697 141 119.551 141Z" fill="url(#paint1_radial)"/>
<path d="M86.4617 97.8544L87.1697 98.4901C105.867 115.237 134.245 114.962 152.61 97.8544" stroke="#5863E3" stroke-width="7" stroke-miterlimit="10" stroke-linecap="round"/>
<path d="M102.284 79.157C106.258 79.157 109.479 74.0076 109.479 67.6554C109.479 61.3032 106.258 56.1538 102.284 56.1538C98.3095 56.1538 95.0878 61.3032 95.0878 67.6554C95.0878 74.0076 98.3095 79.157 102.284 79.157Z" fill="#5863E3"/>
<path d="M136.803 79.157C140.777 79.157 143.999 74.0076 143.999 67.6554C143.999 61.3032 140.777 56.1538 136.803 56.1538C132.829 56.1538 129.607 61.3032 129.607 67.6554C129.607 74.0076 132.829 79.157 136.803 79.157Z" fill="#5863E3"/>
<defs>
<radialGradient id="paint0_radial" cx="0" cy="0" r="1" gradientUnits="userSpaceOnUse" gradientTransform="translate(54.8069 54.8069) rotate(89.8326) scale(54.6474)">
<stop stop-color="#8F97F9"/>
<stop offset="1" stop-color="#7A83EB"/>
</radialGradient>
<radialGradient id="paint1_radial" cx="0" cy="0" r="1" gradientUnits="userSpaceOnUse" gradientTransform="translate(119.551 86.3528) rotate(90) scale(54.6472)">
<stop stop-color="#8F97F9"/>
<stop offset="1" stop-color="#7A83EB"/>
</radialGradient>
</defs>
</svg>
